<svg xmlns="http://www.w3.org/2000/svg" xmlns:xlink="http://www.w3.org/1999/xlink" width="256" height="256"><defs><linearGradient id="a"><stop offset=".3323223" stop-color="#53f8ff"/><stop offset="1" stop-color="#7f5bf8"/></linearGradient><linearGradient xlink:href="#a" id="b" x1="14.621732" x2="265.13705" y1="119.47791" y2="119.47791" gradientUnits="userSpaceOnUse"/><linearGradient xlink:href="#a" id="c" x1="14.621732" x2="265.13705" y1="119.47791" y2="119.47791" gradientUnits="userSpaceOnUse"/><linearGradient xlink:href="#a" id="d" x1="14.621732" x2="265.13705" y1="119.47791" y2="119.47791" gradientUnits="userSpaceOnUse"/></defs><g fill="#161616" stroke="url(#b)" stroke-width="10" aria-label="JL" opacity=".960401" style="line-height:1.25" transform="matrix(.91697 0 0 1.09055 -.26453744 -2.2971024)"><path stroke="url(#c)" d="M169.41816 42.488865q0-5.970579-5.65634-11.312676-3.14241-3.770892-5.3421-5.970579-2.19969-2.199687-3.77089-3.456651-4.39938-2.199687-8.48451-2.199687-9.74147 0-16.34053 5.342097-4.08513 2.513928-4.71362 7.541784-1.25696 13.198122-5.34209 27.967449-3.77089 14.455086-10.05571 31.4241-7.22755 19.797178-14.769331 35.823478-7.541784 16.02629-14.769327 29.22441-10.998435 18.85446-15.71205 18.85446-3.456651 0-3.456651-3.77089 0-1.57121 2.513928-8.48451.942723-3.45665 1.571205-5.3421.628482-2.19968.628482-3.45665 0-5.3421-5.656338-12.88388-5.656338-7.54178-12.88388-7.54178-12.56964 0-20.111424 13.51236-2.828169 5.97058-4.399374 12.2554-1.571205 5.97058-1.571205 13.19812 0 20.73991 10.998435 33.62379 11.312676 12.56964 29.852894 12.56964 15.71205 0 28.28169-9.42723 12.883886-9.42723 25.767766-30.79562 10.99843-18.85446 21.05414-41.47981 10.36996-22.9396 20.11143-50.592803 12.2554-34.880751 12.2554-44.622222zm2.82816 0q0 9.741471-12.25539 45.564945-19.79719 56.24914-41.47982 92.38685-13.51236 22.62535-26.710481 32.36683-13.198122 9.42723-29.852895 9.42723-9.741471 0-17.911736-3.45666-7.856025-3.77089-13.826604-10.05571-5.656338-6.59906-8.798748-15.39781-3.14241-9.11299-3.14241-20.11142 0-14.76933 5.970579-26.39624 8.798748-15.39781 22.939593-15.39781 9.112988 0 15.397808 8.4845 5.970579 7.85603 5.970579 14.76933 0 1.25697-.628482 3.45665-.314241 2.19969-1.885446 5.97058-.942723 3.14241-1.571205 5.02786-.628482 1.5712-.628482 2.82817 0 .94272.628482.94272 3.456651 0 13.198122-17.5975 7.541784-13.19812 14.769327-29.22441 7.541784-16.34053 14.769329-35.509232 12.2554-32.995305 15.08357-58.448826.31424-5.970579 5.65633-9.741471 8.48451-5.970579 18.22598-5.970579 5.02786 0 9.74147 3.14241 2.51393 1.571205 4.71362 3.770892 2.19968 2.199687 5.34209 5.656338 6.28482 6.28482 6.28482 13.512363zm3.14241 0q0-8.170266-7.54178-15.71205h.31424q-3.14241-3.14241-5.65634-5.342097-2.19968-2.199687-4.71361-4.399374-2.51393-1.571205-5.65634-2.513928-2.82817-.942723-5.97058-.942723-11.94116 0-19.79718 6.599061l.31424-.314241q-6.9133 4.085133-7.22754 11.941158-1.57121 12.56964-5.3421 27.024726-3.77089 14.455086-10.05571 30.795618-7.541786 19.797185-14.769329 35.823475-7.227543 16.02629-13.826604 28.28169-2.199687 3.45665-3.456651 5.97058-1.256964 2.51392-2.828169 4.39937 1.256964-3.45665 1.885446-5.3421.628482-2.19968.628482-4.08513 0-7.85602-6.913302-16.65477-7.227543-9.74147-17.597495-9.74147-16.026291 0-25.453521 16.96901-6.28482 13.19812-6.28482 27.96745 0 11.62692 3.14241 21.36839 3.456651 9.42723 9.42723 16.34053 6.28482 6.9133 14.769327 10.68419 8.798747 3.7709 19.1687 3.7709 17.597496 0 31.109859-10.05572Q106.8842 205.2657 120.7108 182.01187q11.31268-19.1687 21.68263-42.1083 10.68419-22.93959 20.42566-50.592796 12.56964-35.509233 12.56964-46.821909z"/><path stroke="url(#d)" d="M258.66238 195.52423q0-8.79875-3.14241-15.39781-7.54178-14.45508-21.68263-14.45508-4.71361 0-11.94116 1.5712l-8.79874 1.88545q-1.57121.31424-3.14241.31424-3.14241 0-3.14241-3.45665 0-1.88545.94272-5.3421 1.88545-5.97058 3.77089-12.2554 1.88545-6.28482 4.39938-12.56964 7.85602-21.36839 17.28325-42.108292 9.42723-20.739906 21.05415-41.479812 4.39937-7.856025 4.39937-11.312676t-7.54178-11.626917l-4.71362-5.027856q-4.08513-4.085133-9.42723-4.085133-9.11299 0-16.65477 6.28482-4.08513 2.828169-4.71362 7.856025-.62848 6.913302-8.4845 22.939593-8.17027 16.340532-14.45509 29.538654-5.97058 13.198122-10.36995 23.882314-.94272 2.82817-3.77089 10.05571-2.51393 7.22755-6.91331 18.85446-7.22754 19.79719-9.42723 27.33897-2.51392 7.85602-3.77089 13.51236-1.25696 5.3421-1.25696 8.79875 0 2.51393.31424 3.77089.31424 3.77089 5.3421 9.11299 1.88544 2.51393 4.39937 5.02786 3.77089 4.08513 6.28482 6.59906 2.51393 2.19969 4.08513 3.45665 1.88545 1.25696 3.14241 1.5712 1.57121.31425 3.14241.31425 3.45665 0 6.28482-1.25697l10.6842-4.39937q20.42566-7.85603 39.9086-7.85603 2.51393 0 5.97058.31424 3.77089.31424 6.28482.31424 5.65634 0 5.65634-10.68419zm2.82817 0q0 13.8266-8.48451 13.8266h-3.14241q-1.5712 0-3.14241-.31424-1.5712-.31424-3.45665-.31424-1.5712-.31424-2.51393-.31424-9.42723 0-19.1687 2.19969-9.74147 1.88544-19.79718 5.65634h.31424l-10.99843 4.39937q-1.88545.94272-3.7709 1.25696h-3.45665q-1.88544 0-3.45665-.31424-1.5712-.31424-3.45665-1.5712-1.88544-1.25697-4.71361-3.77089-2.82817-2.51393-6.91331-6.91331l-3.14241-3.14241q-.94272-1.25696-1.5712-2.19968-5.02786-6.28482-5.97058-10.36996-.31424-1.25696-.31424-4.39937 0-3.77089 1.25696-9.42723 1.25697-5.97058 3.7709-13.8266 1.25696-3.7709 3.77089-10.6842 2.51393-6.9133 5.97058-16.96901v.31424q2.82817-7.85602 4.71361-13.51236 2.19969-5.97058 3.77089-9.74147v.31424q.94273-2.51393 1.25697-4.08514.62848-1.5712.94272-2.19968 4.39937-10.684196 10.36995-23.882318 6.28482-13.512363 14.45509-29.852895 4.08513-7.856025 5.97058-13.198122 1.88544-5.342097 2.19969-8.484507.31424-5.970579 5.97057-10.055712 8.79875-6.913302 18.22598-6.913302 3.45665 0 5.97058 1.256964 2.82817 1.256964 5.3421 3.770892l4.71361 5.027856q8.17027 8.170266 8.17027 13.826604 0 5.027856-4.39938 12.56964-11.62691 21.368388-21.36838 42.108294-9.42723 20.739906-16.96902 41.479816-1.88544 5.34209-3.77089 10.36995-1.88544 4.71361-3.45665 10.05571l.31424-.31424q-.31424.94272-.62848 2.19969-.31424 1.25696-.31424 2.19968-.94272 3.45665-.94272 4.39938 0 .62848.31424.62848.94272 0 2.51392-.31424l8.79875-2.19969q3.45665-.62848 6.28482-.94272 3.14241-.31424 6.28482-.31424 16.02629 0 24.19656 16.02629 3.45665 6.59906 3.45665 16.65477zm2.82817 0q0-10.36995-3.77089-17.91174-9.11299-17.91173-26.71049-17.91173-5.97058 0-13.19812 1.5712l-7.85602 2.19969v-.62848q.31424-.31424.31424-.62849.31424-.94272.62848-2.19968.31424-1.25697.62848-2.19969l-.31424.62848q1.5712-5.02785 3.45665-10.05571 1.88545-5.3421 3.77089-10.68419 7.85603-21.36839 17.28326-41.794055 9.42723-20.739906 20.42566-40.85133 5.02786-9.112989 5.02786-14.140845 0-6.599061-8.79875-15.71205l-5.02786-5.027856q-5.97058-5.970579-13.19812-5.970579-10.68419 0-20.11142 7.227543h.31424q-3.14241 2.513928-5.02786 5.656338-1.88544 3.14241-2.19968 6.913302-.62849 5.656338-7.85603 20.425665-8.17026 16.340532-14.45508 29.852895-5.97058 13.512363-10.36996 23.882312v-.31424q-.62848.94273-1.25696 2.82817-.31424 1.57121-1.25697 4.08513l.31425-.62848q-1.57121 3.77089-3.7709 9.74147-2.19968 5.65634-5.02785 13.51237-3.45665 10.05571-5.97058 16.96901-2.19969 6.9133-3.45665 10.68419-5.3421 16.96902-5.3421 24.19656v2.51393q0 .94272.62848 2.51393l-.31424-.62849q.94272 6.28482 6.9133 12.56964l-.31424-.31424q.62848.62849 1.57121 2.19969l3.14241 3.14241q4.39937 4.71362 7.22754 7.54178 3.14241 2.51393 5.3421 4.08514 2.19968 1.25696 3.77089 1.5712 1.88545.62848 4.39937.62848 5.02786 0 8.17027-1.5712l10.68419-4.39937q10.05572-3.7709 19.48295-5.65634 9.42723-2.19969 18.54021-2.19969.62849 0 2.19969.31424 1.88545 0 3.45665.31424 1.57121.31424 3.14241.31424h3.45665q11.31268 0 11.31268-16.65477z"/></g></svg>